<svg 
 xmlns="http://www.w3.org/2000/svg"
 xmlns:xlink="http://www.w3.org/1999/xlink"
 width="41px" height="41px"
 viewBox="0 0 41 41">
<path fill-rule="evenodd"  fill="rgb(1, 129, 228)"
 d="M31.431,23.042 L31.431,24.600 L32.798,24.600 C33.175,24.600 33.481,24.906 33.481,25.283 L33.481,28.016 C33.481,28.394 33.175,28.700 32.798,28.700 L32.798,37.583 C32.798,39.470 31.268,41.000 29.381,41.000 C27.494,41.000 25.965,39.470 25.965,37.583 L25.965,28.700 C25.587,28.700 25.281,28.394 25.281,28.016 L25.281,25.283 C25.281,24.906 25.587,24.600 25.965,24.600 L27.331,24.600 L27.331,23.042 C24.425,22.516 21.828,20.903 20.069,18.532 C19.396,19.912 18.439,21.135 17.261,22.120 C17.202,22.169 17.141,22.210 17.081,22.257 L17.081,24.792 L22.764,26.688 C23.018,26.773 23.200,26.998 23.228,27.265 L24.595,40.248 C24.597,40.271 24.598,40.294 24.598,40.316 C24.598,40.694 24.292,41.000 23.915,41.000 L0.682,41.000 C0.658,41.000 0.634,40.998 0.610,40.996 C0.235,40.957 -0.037,40.621 0.002,40.245 L1.369,27.262 C1.397,26.996 1.578,26.770 1.833,26.686 L7.515,24.792 L7.515,22.257 C7.456,22.210 7.394,22.169 7.335,22.120 C5.193,20.334 3.819,17.792 3.498,15.021 C3.471,15.026 3.443,15.031 3.415,15.034 C3.038,15.034 2.732,14.727 2.732,14.350 L2.732,12.984 C2.730,10.428 3.751,7.979 5.568,6.182 C9.321,2.468 15.374,2.500 19.087,6.254 C21.086,2.415 25.053,0.006 29.381,0.001 C35.009,-0.003 39.828,4.029 40.818,9.569 C41.947,15.881 37.744,21.913 31.431,23.042 ZM17.081,39.633 L23.155,39.633 L21.915,27.842 L17.081,26.231 L17.081,39.633 ZM27.331,37.583 C27.331,38.715 28.249,39.633 29.381,39.633 C30.513,39.633 31.431,38.715 31.431,37.583 L31.431,28.700 L27.331,28.700 L27.331,37.583 ZM26.648,25.967 L26.648,27.333 L32.114,27.333 L32.114,25.967 L26.648,25.967 ZM30.064,24.600 L30.064,23.198 C29.837,23.212 29.612,23.233 29.381,23.233 C29.150,23.233 28.925,23.212 28.698,23.198 L28.698,24.600 L30.064,24.600 ZM15.715,39.633 L15.715,30.559 L13.297,29.750 L15.011,36.037 C15.055,36.199 15.038,36.372 14.963,36.522 L13.404,39.633 L15.715,39.633 ZM15.715,29.118 L15.715,27.756 L14.080,28.571 L15.715,29.118 ZM13.620,36.148 L12.298,31.297 L10.976,36.148 L12.298,38.789 L13.620,36.148 ZM8.882,39.633 L11.193,39.633 L9.637,36.523 C9.562,36.373 9.545,36.200 9.589,36.038 L11.303,29.752 L8.882,30.559 L8.882,39.633 ZM8.882,29.118 L10.517,28.576 L8.882,27.756 L8.882,29.118 ZM8.882,26.228 L12.298,27.936 L15.715,26.228 L15.715,23.117 C13.562,24.183 11.035,24.183 8.882,23.117 L8.882,26.228 ZM2.682,27.842 L1.441,39.633 L7.515,39.633 L7.515,26.231 L2.682,27.842 ZM12.265,4.784 C7.745,4.794 4.089,8.465 4.098,12.984 L4.098,13.057 C7.058,11.130 10.341,9.753 13.790,8.991 L14.200,8.900 C14.249,8.889 14.299,8.883 14.349,8.883 C14.726,8.883 15.032,9.190 15.032,9.567 C15.035,11.218 16.218,12.631 17.843,12.923 C17.631,11.133 17.851,9.318 18.484,7.631 C16.926,5.819 14.654,4.779 12.265,4.784 ZM18.099,14.335 C15.919,14.173 14.125,12.556 13.738,10.405 C10.563,11.150 7.543,12.443 4.813,14.227 C4.938,16.883 6.170,19.365 8.211,21.070 C10.578,23.044 14.018,23.044 16.386,21.070 C17.634,20.026 18.595,18.680 19.175,17.160 C18.694,16.270 18.332,15.320 18.099,14.335 ZM29.381,1.367 C23.720,1.367 19.131,5.957 19.131,11.617 C19.131,17.278 23.720,21.867 29.381,21.867 C35.039,21.860 39.625,17.275 39.631,11.617 C39.631,5.957 35.042,1.367 29.381,1.367 ZM29.381,20.500 C24.475,20.500 20.498,16.523 20.498,11.617 C20.498,6.711 24.475,2.734 29.381,2.734 C34.285,2.740 38.259,6.713 38.264,11.617 C38.264,16.523 34.287,20.500 29.381,20.500 ZM29.381,4.101 C25.230,4.101 21.865,7.466 21.865,11.617 C21.865,15.768 25.230,19.133 29.381,19.133 C33.530,19.129 36.893,15.766 36.898,11.617 C36.898,7.466 33.532,4.101 29.381,4.101 ZM32.998,15.234 C34.990,13.234 34.990,10.000 32.998,8.000 L33.964,7.034 C36.490,9.568 36.490,13.667 33.964,16.200 L32.998,15.234 ZM31.737,17.696 L31.126,16.474 L32.492,15.790 L33.103,17.012 L31.737,17.696 Z"/>
</svg>