<svg 
 xmlns="http://www.w3.org/2000/svg"
 xmlns:xlink="http://www.w3.org/1999/xlink"
 width="48px" height="30px"
 viewBox="0 0 48 30">
<path fill-rule="evenodd"  fill="rgb(13, 135, 229)"
 d="M31.215,20.590 C31.630,20.590 31.967,20.922 31.967,21.332 C31.967,21.742 31.630,22.075 31.215,22.075 L19.989,22.075 C19.574,22.075 19.238,21.742 19.238,21.332 C19.238,20.922 19.574,20.590 19.989,20.590 L31.215,20.590 ZM18.386,15.738 C18.193,15.738 18.001,15.666 17.854,15.521 L13.845,11.561 C13.552,11.271 13.552,10.801 13.845,10.511 C14.139,10.221 14.615,10.221 14.908,10.511 L18.386,13.946 L25.071,7.343 C25.364,7.053 25.840,7.053 26.134,7.343 C26.427,7.633 26.427,8.103 26.134,8.393 L18.917,15.521 C18.771,15.666 18.578,15.738 18.386,15.738 ZM47.252,25.243 L44.794,25.243 C44.795,25.259 44.796,25.275 44.796,25.292 C44.796,27.885 42.660,29.994 40.035,29.994 C37.410,29.994 35.274,27.885 35.274,25.292 C35.274,25.276 35.275,25.259 35.276,25.243 L18.334,25.243 C18.334,25.259 18.336,25.275 18.336,25.292 C18.336,27.885 16.200,29.994 13.575,29.994 C10.950,29.994 8.814,27.885 8.814,25.292 C8.814,25.276 8.815,25.259 8.815,25.243 L4.755,25.243 C3.898,25.243 3.201,24.554 3.201,23.708 L3.201,22.075 L0.746,22.075 C0.330,22.075 -0.006,21.742 -0.006,21.332 C-0.006,20.922 0.331,20.589 0.746,20.589 L7.962,20.589 C8.377,20.589 8.714,20.922 8.714,21.332 C8.714,21.742 8.377,22.075 7.962,22.075 L4.705,22.075 L4.705,23.708 C4.705,23.735 4.727,23.757 4.755,23.757 L9.076,23.757 C9.721,21.916 11.494,20.589 13.575,20.589 C15.656,20.589 17.428,21.916 18.074,23.757 L33.670,23.757 L33.670,18.164 C33.670,17.754 34.007,17.422 34.422,17.422 C34.837,17.422 35.174,17.754 35.174,18.164 L35.174,23.758 L35.536,23.758 C36.181,21.916 37.954,20.590 40.035,20.590 C42.116,20.590 43.888,21.916 44.534,23.758 L46.500,23.758 L46.500,20.491 L45.648,20.491 C44.349,20.491 43.292,19.447 43.292,18.164 L43.292,16.580 C43.292,16.170 43.629,15.838 44.044,15.838 L46.382,15.838 C46.063,14.863 45.137,14.155 44.046,14.154 C44.045,14.154 44.044,14.155 44.044,14.155 C44.043,14.155 44.042,14.154 44.042,14.154 L35.174,14.154 L35.174,14.996 C35.174,15.407 34.837,15.739 34.422,15.739 C34.007,15.739 33.670,15.406 33.670,14.996 L33.670,1.532 C33.670,1.504 33.648,1.482 33.620,1.482 L4.755,1.482 C4.727,1.482 4.705,1.504 4.705,1.532 L4.705,14.996 C4.705,15.406 4.368,15.738 3.953,15.738 C3.538,15.738 3.201,15.406 3.201,14.996 L3.201,1.532 C3.201,0.686 3.898,-0.003 4.755,-0.003 L33.621,-0.003 C34.477,-0.003 35.174,0.686 35.174,1.532 L35.174,3.166 L40.837,3.166 C42.578,3.166 43.994,4.564 43.994,6.284 L43.994,7.076 C43.994,7.433 43.739,7.731 43.399,7.802 L44.643,12.714 C46.543,13.000 48.003,14.624 48.003,16.580 L48.003,24.500 C48.003,24.910 47.667,25.243 47.252,25.243 ZM13.575,22.075 C11.779,22.075 10.317,23.518 10.317,25.292 C10.317,27.067 11.779,28.510 13.575,28.510 C15.371,28.510 16.832,27.067 16.832,25.292 C16.832,23.518 15.371,22.075 13.575,22.075 ZM40.035,22.075 C38.239,22.075 36.778,23.518 36.778,25.292 C36.778,27.067 38.239,28.510 40.035,28.510 C41.831,28.510 43.293,27.067 43.293,25.292 C43.293,23.518 41.831,22.075 40.035,22.075 ZM42.491,6.284 C42.491,5.383 41.749,4.650 40.837,4.650 L35.174,4.650 L35.174,6.333 L42.491,6.333 L42.491,6.284 ZM41.854,7.819 L35.174,7.819 L35.174,12.669 L43.082,12.669 L41.854,7.819 ZM46.500,17.322 L44.796,17.322 L44.796,18.164 C44.796,18.628 45.178,19.006 45.648,19.006 L46.500,19.006 L46.500,17.322 ZM40.035,26.827 C39.179,26.827 38.482,26.138 38.482,25.292 C38.482,24.446 39.179,23.758 40.035,23.758 C40.892,23.758 41.589,24.446 41.589,25.292 C41.589,26.138 40.892,26.827 40.035,26.827 ZM13.575,26.827 C12.718,26.827 12.021,26.138 12.021,25.292 C12.021,24.446 12.718,23.758 13.575,23.758 C14.431,23.758 15.128,24.446 15.128,25.292 C15.128,26.138 14.431,26.827 13.575,26.827 ZM12.723,18.164 C12.723,18.574 12.386,18.906 11.971,18.906 L2.349,18.906 C1.934,18.906 1.597,18.574 1.597,18.164 C1.597,17.754 1.934,17.422 2.349,17.422 L11.971,17.422 C12.386,17.422 12.723,17.754 12.723,18.164 Z"/>
</svg>