<svg 
 xmlns="http://www.w3.org/2000/svg"
 xmlns:xlink="http://www.w3.org/1999/xlink"
 width="39px" height="43px"
 viewBox="0 0 39 43">
<path fill-rule="evenodd"  fill="rgb(1, 129, 228)"
 d="M38.166,33.400 L29.043,42.790 C28.912,42.924 28.735,43.000 28.550,43.000 L24.372,43.000 C23.988,43.000 23.676,42.679 23.676,42.283 L23.676,37.983 C23.676,37.793 23.750,37.610 23.880,37.476 L33.004,28.086 C34.072,26.987 35.703,26.985 36.774,28.086 L38.166,29.520 C39.276,30.662 39.276,32.258 38.166,33.400 ZM29.247,40.553 L35.297,34.326 L34.192,33.190 L28.142,39.416 L29.247,40.553 ZM25.069,41.566 L28.262,41.566 L25.069,38.280 L25.069,41.566 ZM32.103,31.040 L26.053,37.267 L27.158,38.403 L33.207,32.177 L32.103,31.040 ZM37.182,30.533 L35.789,29.100 C35.236,28.532 34.538,28.535 33.988,29.100 L33.088,30.027 L36.281,33.313 L37.182,32.387 C37.745,31.807 37.745,31.114 37.182,30.533 ZM35.514,25.800 C35.129,25.800 34.818,25.479 34.818,25.083 L34.818,11.466 L28.550,11.466 C26.631,11.466 25.069,9.859 25.069,7.883 L25.069,4.300 C25.069,3.904 25.381,3.583 25.765,3.583 C26.149,3.583 26.461,3.904 26.461,4.300 L26.461,7.883 C26.461,9.068 27.399,10.033 28.550,10.033 L35.514,10.033 C35.898,10.033 36.210,10.354 36.210,10.750 L36.210,25.083 C36.210,25.479 35.898,25.800 35.514,25.800 ZM7.660,12.900 L11.838,12.900 C12.222,12.900 12.534,13.221 12.534,13.616 L12.534,17.916 C12.534,18.312 12.222,18.633 11.838,18.633 L7.660,18.633 C7.275,18.633 6.964,18.312 6.964,17.916 L6.964,13.616 C6.964,13.221 7.275,12.900 7.660,12.900 ZM8.356,17.200 L11.142,17.200 L11.142,14.333 L8.356,14.333 L8.356,17.200 ZM11.838,30.100 C12.222,30.100 12.534,30.421 12.534,30.816 L12.534,35.116 C12.534,35.512 12.222,35.833 11.838,35.833 L7.660,35.833 C7.275,35.833 6.963,35.512 6.963,35.116 L6.963,30.816 C6.963,30.421 7.275,30.100 7.660,30.100 L11.838,30.100 ZM8.356,34.400 L11.142,34.400 L11.142,31.533 L8.356,31.533 L8.356,34.400 ZM7.167,24.576 C7.440,24.296 7.880,24.296 8.152,24.576 L8.944,25.391 L11.258,21.818 C11.472,21.489 11.903,21.400 12.224,21.620 C12.544,21.839 12.630,22.284 12.417,22.614 L9.632,26.914 C9.516,27.092 9.329,27.209 9.121,27.230 C9.098,27.232 9.075,27.233 9.052,27.233 C8.869,27.233 8.691,27.158 8.560,27.023 L7.167,25.590 C6.895,25.309 6.895,24.856 7.167,24.576 ZM32.236,8.390 L25.477,1.433 L3.482,1.433 C2.330,1.433 1.393,2.398 1.393,3.583 L1.393,39.416 C1.393,40.602 2.330,41.566 3.482,41.566 L21.587,41.566 C21.971,41.566 22.283,41.888 22.283,42.283 C22.283,42.679 21.971,43.000 21.587,43.000 L3.482,43.000 C1.562,43.000 -0.000,41.392 -0.000,39.417 L-0.000,3.583 C-0.000,1.607 1.562,-0.000 3.482,-0.000 L25.765,-0.000 C25.949,-0.000 26.127,0.075 26.257,0.210 L33.221,7.376 C33.493,7.656 33.493,8.110 33.221,8.390 C32.948,8.670 32.508,8.670 32.236,8.390 ZM29.247,17.916 C29.247,18.312 28.935,18.633 28.550,18.633 L22.979,18.633 C22.595,18.633 22.283,18.312 22.283,17.916 C22.283,17.521 22.595,17.200 22.979,17.200 L28.550,17.200 C28.935,17.200 29.247,17.521 29.247,17.916 ZM16.016,12.900 L22.979,12.900 C23.364,12.900 23.676,13.221 23.676,13.616 C23.676,14.012 23.364,14.333 22.979,14.333 L16.016,14.333 C15.632,14.333 15.320,14.012 15.320,13.616 C15.320,13.221 15.632,12.900 16.016,12.900 ZM16.016,17.200 L20.194,17.200 C20.579,17.200 20.891,17.521 20.891,17.916 C20.891,18.312 20.579,18.633 20.194,18.633 L16.016,18.633 C15.632,18.633 15.320,18.312 15.320,17.916 C15.320,17.521 15.632,17.200 16.016,17.200 ZM16.016,21.500 L17.409,21.500 C17.793,21.500 18.105,21.821 18.105,22.216 C18.105,22.612 17.793,22.933 17.409,22.933 L16.016,22.933 C15.632,22.933 15.320,22.612 15.320,22.216 C15.320,21.821 15.632,21.500 16.016,21.500 ZM16.016,25.800 L21.587,25.800 C21.971,25.800 22.283,26.121 22.283,26.516 C22.283,26.912 21.971,27.233 21.587,27.233 L16.016,27.233 C15.632,27.233 15.320,26.912 15.320,26.516 C15.320,26.121 15.632,25.800 16.016,25.800 ZM19.498,22.217 C19.498,21.821 19.810,21.500 20.194,21.500 L27.158,21.500 C27.542,21.500 27.854,21.821 27.854,22.217 C27.854,22.612 27.542,22.933 27.158,22.933 L20.194,22.933 C19.810,22.933 19.498,22.612 19.498,22.217 ZM16.016,34.400 L21.587,34.400 C21.971,34.400 22.283,34.721 22.283,35.116 C22.283,35.512 21.971,35.833 21.587,35.833 L16.016,35.833 C15.632,35.833 15.320,35.512 15.320,35.116 C15.320,34.721 15.632,34.400 16.016,34.400 ZM16.016,30.100 L21.587,30.100 C21.971,30.100 22.283,30.421 22.283,30.816 C22.283,31.212 21.971,31.533 21.587,31.533 L16.016,31.533 C15.632,31.533 15.320,31.212 15.320,30.816 C15.320,30.421 15.632,30.100 16.016,30.100 ZM25.765,30.100 C26.149,30.100 26.461,30.421 26.461,30.816 C26.461,31.212 26.149,31.533 25.765,31.533 L24.372,31.533 C23.988,31.533 23.676,31.212 23.676,30.816 C23.676,30.421 23.988,30.100 24.372,30.100 L25.765,30.100 ZM24.372,25.800 L28.550,25.800 C28.935,25.800 29.247,26.121 29.247,26.516 C29.247,26.912 28.935,27.233 28.550,27.233 L24.372,27.233 C23.988,27.233 23.676,26.912 23.676,26.516 C23.676,26.121 23.988,25.800 24.372,25.800 Z"/>
</svg>