<svg 
 xmlns="http://www.w3.org/2000/svg"
 xmlns:xlink="http://www.w3.org/1999/xlink"
 width="39px" height="44px"
 viewBox="0 0 39 44">
<path fill-rule="evenodd"  fill="rgb(1, 129, 228)"
 d="M37.351,23.767 C36.079,27.964 34.123,31.722 31.535,34.937 C28.468,38.748 24.519,41.775 19.799,43.936 C19.708,43.978 19.609,44.000 19.509,44.000 L19.491,44.000 C19.391,44.000 19.292,43.978 19.200,43.936 C14.481,41.775 10.532,38.748 7.465,34.937 C4.877,31.722 2.920,27.964 1.649,23.767 C-0.495,16.692 -0.291,9.509 0.806,5.829 C0.905,5.496 1.227,5.284 1.568,5.327 C1.597,5.331 4.550,5.692 8.175,5.228 C11.466,4.807 16.010,3.599 18.964,0.239 C19.104,0.080 19.297,-0.000 19.491,-0.000 C19.497,-0.000 19.503,-0.000 19.509,-0.000 C19.703,-0.000 19.896,0.080 20.035,0.239 C22.997,3.608 27.555,4.814 30.858,5.232 C34.479,5.691 37.403,5.331 37.432,5.327 C37.772,5.284 38.095,5.496 38.194,5.829 C39.291,9.509 39.495,16.692 37.351,23.767 ZM37.000,6.801 C35.921,6.890 33.523,7.006 30.683,6.646 C25.931,6.045 22.084,4.354 19.500,1.741 C16.915,4.354 13.069,6.045 8.317,6.646 C5.481,7.006 3.086,6.890 2.005,6.802 C1.240,9.975 0.930,16.531 2.996,23.349 C4.214,27.370 6.085,30.966 8.558,34.037 C11.425,37.599 15.105,40.447 19.500,42.507 C23.895,40.447 27.575,37.599 30.442,34.037 C32.914,30.966 34.786,27.370 36.004,23.349 C37.166,19.515 38.341,12.082 37.000,6.801 ZM19.817,40.559 C19.717,40.610 19.608,40.635 19.500,40.635 C19.391,40.635 19.283,40.610 19.183,40.559 C11.885,36.842 6.952,30.893 4.523,22.876 C2.587,16.488 2.959,11.133 3.209,9.127 C3.253,8.771 3.553,8.504 3.908,8.504 C3.911,8.504 3.914,8.504 3.917,8.504 C4.061,8.506 4.210,8.507 4.364,8.507 C7.796,8.507 14.270,7.954 19.073,4.257 C19.325,4.064 19.675,4.064 19.927,4.257 C24.729,7.954 31.204,8.507 34.636,8.507 C34.790,8.507 34.939,8.506 35.083,8.504 C35.444,8.498 35.746,8.767 35.791,9.127 C36.041,11.133 36.412,16.488 34.477,22.876 C32.048,30.893 27.115,36.843 19.817,40.559 ZM34.460,9.932 C32.706,9.922 30.101,9.771 27.341,9.131 C24.303,8.425 21.668,7.276 19.500,5.710 C17.332,7.276 14.697,8.425 11.659,9.131 C8.899,9.771 6.294,9.922 4.540,9.932 C4.349,11.985 4.172,16.852 5.870,22.458 C8.147,29.973 12.732,35.577 19.500,39.122 C26.268,35.577 30.853,29.973 33.130,22.458 C34.828,16.852 34.651,11.985 34.460,9.932 ZM24.142,22.637 C25.474,23.564 26.208,24.822 26.208,26.181 C26.208,27.540 25.474,28.798 24.142,29.725 C23.436,30.216 22.604,30.582 21.699,30.809 L21.699,31.883 C21.699,32.277 21.383,32.596 20.994,32.596 C20.605,32.596 20.289,32.277 20.289,31.883 L20.289,31.040 C20.026,31.063 19.760,31.075 19.491,31.075 C19.222,31.075 18.956,31.063 18.692,31.040 L18.692,31.883 C18.692,32.277 18.377,32.596 17.988,32.596 C17.599,32.596 17.283,32.277 17.283,31.883 L17.283,30.809 C16.378,30.582 15.546,30.216 14.840,29.725 C13.508,28.798 12.774,27.540 12.774,26.181 C12.774,25.788 13.089,25.469 13.478,25.469 C13.868,25.469 14.183,25.788 14.183,26.181 C14.183,27.550 15.472,28.764 17.283,29.323 L17.283,22.446 C16.378,22.219 15.546,21.853 14.840,21.363 C13.508,20.436 12.774,19.177 12.774,17.818 C12.774,16.460 13.508,15.201 14.840,14.274 C15.546,13.784 16.378,13.417 17.283,13.191 L17.283,12.116 C17.283,11.723 17.599,11.404 17.988,11.404 C18.377,11.404 18.692,11.723 18.692,12.116 L18.692,12.959 C18.956,12.937 19.222,12.924 19.491,12.924 C19.760,12.924 20.026,12.937 20.289,12.959 L20.289,12.116 C20.289,11.723 20.605,11.404 20.994,11.404 C21.383,11.404 21.699,11.723 21.699,12.116 L21.699,13.191 C22.604,13.417 23.436,13.784 24.142,14.274 C25.474,15.201 26.208,16.460 26.208,17.818 C26.208,18.212 25.893,18.531 25.503,18.531 C25.114,18.531 24.799,18.212 24.799,17.818 C24.799,16.449 23.510,15.236 21.699,14.677 L21.699,21.554 C22.604,21.780 23.436,22.146 24.142,22.637 ZM21.699,29.323 C23.510,28.764 24.799,27.550 24.799,26.181 C24.799,24.812 23.510,23.599 21.699,23.040 L21.699,29.323 ZM17.283,14.677 C15.472,15.236 14.183,16.449 14.183,17.818 C14.183,19.187 15.472,20.401 17.283,20.960 L17.283,14.677 ZM20.289,14.391 C20.028,14.363 19.762,14.350 19.491,14.350 C19.220,14.350 18.954,14.363 18.692,14.391 L18.692,21.246 C18.954,21.273 19.220,21.287 19.491,21.287 C19.760,21.287 20.026,21.300 20.289,21.322 L20.289,14.391 ZM20.289,22.753 C20.028,22.727 19.762,22.712 19.491,22.712 C19.222,22.712 18.956,22.700 18.692,22.677 L18.692,29.609 C18.954,29.636 19.220,29.650 19.491,29.650 C19.762,29.650 20.028,29.636 20.289,29.609 L20.289,22.753 Z"/>
</svg>