<svg 
 xmlns="http://www.w3.org/2000/svg"
 xmlns:xlink="http://www.w3.org/1999/xlink"
 width="17px" height="13px"
 viewBox="0 0 17 13">
<path fill-rule="evenodd"  fill="rgb(0, 0, 0)"
 d="M14.272,12.450 L1.988,12.450 C0.892,12.450 -0.000,11.558 -0.000,10.462 L-0.000,2.066 C-0.000,0.969 0.892,0.078 1.988,0.078 L14.276,0.078 C15.372,0.078 16.264,0.972 16.261,2.069 L16.261,10.462 C16.261,11.558 15.369,12.450 14.272,12.450 ZM15.352,10.462 L15.352,2.069 C15.352,1.474 14.868,0.989 14.272,0.989 L1.988,0.989 C1.393,0.989 0.908,1.474 0.908,2.069 L0.908,10.462 C0.908,11.057 1.393,11.542 1.988,11.542 L14.276,11.542 C14.871,11.542 15.356,11.057 15.356,10.462 L15.352,10.462 ZM14.265,10.593 C14.175,10.687 14.057,10.734 13.936,10.734 C13.825,10.734 13.710,10.694 13.623,10.610 L9.579,6.768 L8.445,7.784 C8.361,7.862 8.250,7.902 8.142,7.902 C8.034,7.902 7.927,7.865 7.839,7.788 L6.736,6.802 L2.668,10.607 C2.581,10.687 2.469,10.728 2.358,10.728 C2.237,10.728 2.116,10.677 2.025,10.583 C1.854,10.398 1.864,10.112 2.046,9.940 L6.053,6.190 L2.029,2.594 C1.840,2.426 1.824,2.140 1.992,1.951 C2.160,1.763 2.446,1.746 2.634,1.914 L6.988,5.810 C7.015,5.830 7.039,5.850 7.062,5.874 C7.062,5.877 7.065,5.880 7.069,5.884 L8.139,6.839 L13.623,1.918 C13.811,1.750 14.097,1.766 14.265,1.951 C14.434,2.140 14.417,2.426 14.232,2.594 L10.255,6.160 L14.249,9.951 C14.430,10.122 14.437,10.411 14.265,10.593 Z"/>
</svg>