<svg 
 xmlns="http://www.w3.org/2000/svg"
 xmlns:xlink="http://www.w3.org/1999/xlink"
 width="25px" height="16px"
 viewBox="0 0 25 16">
<path fill-rule="evenodd"  fill="rgb(0, 0, 0)"
 d="M24.000,9.000 L1.000,9.000 C0.448,9.000 -0.000,8.552 -0.000,8.000 C-0.000,7.448 0.448,7.000 1.000,7.000 L24.000,7.000 C24.552,7.000 25.000,7.448 25.000,8.000 C25.000,8.552 24.552,9.000 24.000,9.000 ZM24.000,2.000 L1.000,2.000 C0.448,2.000 -0.000,1.552 -0.000,1.000 C-0.000,0.448 0.448,-0.000 1.000,-0.000 L24.000,-0.000 C24.552,-0.000 25.000,0.448 25.000,1.000 C25.000,1.552 24.552,2.000 24.000,2.000 ZM1.000,14.000 L24.000,14.000 C24.552,14.000 25.000,14.448 25.000,15.000 C25.000,15.552 24.552,16.000 24.000,16.000 L1.000,16.000 C0.448,16.000 -0.000,15.552 -0.000,15.000 C-0.000,14.448 0.448,14.000 1.000,14.000 Z"/>
</svg>