<svg 
 xmlns="http://www.w3.org/2000/svg"
 xmlns:xlink="http://www.w3.org/1999/xlink"
 width="17px" height="18px"
 viewBox="0 0 17 18">
<path fill-rule="evenodd"  fill="rgb(0, 0, 0)"
 d="M16.597,8.878 C16.568,8.881 16.543,8.885 16.515,8.885 C16.281,8.885 16.076,8.722 16.037,8.489 C15.753,6.843 14.962,5.342 13.748,4.147 C12.533,2.957 11.006,2.176 9.332,1.897 C9.066,1.851 8.890,1.607 8.933,1.346 C8.980,1.088 9.227,0.911 9.490,0.957 C11.365,1.272 13.072,2.141 14.430,3.476 C15.789,4.812 16.673,6.490 16.992,8.334 C17.039,8.592 16.860,8.839 16.597,8.878 ZM9.357,3.992 C10.496,4.183 11.534,4.713 12.357,5.522 C13.180,6.331 13.719,7.352 13.913,8.472 C13.956,8.733 13.780,8.980 13.514,9.023 C13.485,9.026 13.460,9.030 13.432,9.030 C13.198,9.030 12.993,8.867 12.954,8.634 C12.792,7.709 12.350,6.868 11.667,6.196 C10.985,5.525 10.129,5.087 9.188,4.932 C8.922,4.889 8.750,4.638 8.796,4.381 C8.843,4.123 9.091,3.950 9.357,3.992 ZM6.137,7.140 C5.871,7.405 5.598,7.680 5.304,7.945 C5.523,8.422 5.825,8.892 6.274,9.450 C7.201,10.570 8.167,11.436 9.231,12.100 C9.335,12.163 9.457,12.223 9.587,12.287 C9.677,12.333 9.770,12.379 9.863,12.428 L10.999,11.316 C11.362,10.959 11.786,10.772 12.228,10.772 C12.673,10.772 13.094,10.962 13.442,11.319 L15.415,13.266 C15.778,13.619 15.968,14.039 15.968,14.477 C15.968,14.912 15.782,15.336 15.426,15.700 C15.271,15.859 15.113,16.011 14.959,16.155 C14.732,16.371 14.517,16.572 14.330,16.795 C14.326,16.802 14.319,16.806 14.316,16.813 C13.769,17.396 13.072,17.689 12.242,17.689 C12.170,17.689 12.091,17.685 12.016,17.682 C10.783,17.604 9.680,17.148 8.854,16.763 C6.691,15.735 4.797,14.276 3.223,12.428 C1.926,10.895 1.056,9.464 0.474,7.920 C0.237,7.292 -0.072,6.331 0.014,5.299 C0.072,4.660 0.334,4.109 0.794,3.656 L2.016,2.445 C2.019,2.441 2.019,2.441 2.023,2.438 C2.382,2.098 2.806,1.918 3.245,1.918 C3.683,1.918 4.100,2.098 4.448,2.438 C4.682,2.649 4.908,2.876 5.124,3.095 C5.232,3.208 5.347,3.321 5.458,3.430 L6.439,4.395 C7.194,5.137 7.194,6.098 6.439,6.839 C6.338,6.938 6.238,7.041 6.137,7.140 ZM5.756,5.070 L4.775,4.105 C4.660,3.988 4.545,3.875 4.434,3.762 C4.215,3.540 4.006,3.331 3.787,3.130 C3.784,3.126 3.780,3.123 3.777,3.119 C3.661,3.006 3.478,2.872 3.252,2.872 C3.069,2.872 2.882,2.960 2.706,3.123 L1.480,4.328 C1.182,4.621 1.020,4.963 0.985,5.377 C0.931,6.023 1.053,6.709 1.387,7.588 C1.930,9.030 2.749,10.372 3.974,11.824 C5.458,13.566 7.244,14.940 9.278,15.908 C10.022,16.258 11.013,16.668 12.080,16.735 C12.134,16.739 12.192,16.739 12.246,16.739 C12.806,16.739 13.234,16.558 13.597,16.177 C13.820,15.919 14.057,15.689 14.290,15.470 C14.445,15.322 14.589,15.188 14.729,15.039 C15.095,14.665 15.095,14.294 14.725,13.933 L12.745,11.987 C12.742,11.983 12.742,11.983 12.738,11.980 C12.627,11.860 12.443,11.722 12.221,11.722 C11.994,11.722 11.800,11.867 11.678,11.987 L10.449,13.195 C10.388,13.255 10.201,13.439 9.903,13.439 C9.784,13.439 9.669,13.410 9.547,13.351 C9.533,13.343 9.519,13.333 9.504,13.326 C9.400,13.262 9.278,13.202 9.148,13.139 C9.005,13.068 8.854,12.994 8.706,12.902 C7.553,12.185 6.507,11.248 5.516,10.047 L5.512,10.044 C4.966,9.362 4.607,8.790 4.351,8.182 C4.348,8.171 4.344,8.161 4.341,8.150 C4.276,7.949 4.218,7.652 4.527,7.348 C4.531,7.341 4.538,7.338 4.545,7.331 C4.858,7.055 5.145,6.772 5.447,6.469 C5.552,6.370 5.652,6.267 5.756,6.165 C6.137,5.790 6.137,5.444 5.756,5.070 Z"/>
</svg>