<svg 
 xmlns="http://www.w3.org/2000/svg"
 xmlns:xlink="http://www.w3.org/1999/xlink"
 width="15px" height="19px"
 viewBox="0 0 15 19">
<path fill-rule="evenodd"  fill="rgb(10, 10, 10)"
 d="M13.105,9.674 L7.959,17.935 C7.860,18.095 7.681,18.193 7.488,18.194 C7.486,18.194 7.485,18.194 7.484,18.194 C7.292,18.194 7.114,18.099 7.013,17.942 L1.732,9.760 C1.082,8.751 0.739,7.588 0.739,6.396 C0.739,2.869 3.723,-0.000 7.391,-0.000 C11.059,-0.000 14.043,2.869 14.043,6.396 C14.043,7.553 13.719,8.686 13.105,9.674 ZM7.391,1.059 C4.335,1.059 1.840,3.457 1.840,6.396 C1.840,7.390 2.134,8.359 2.674,9.198 L7.475,16.637 L12.154,9.126 C12.665,8.304 12.938,7.360 12.938,6.396 C12.938,3.457 10.448,1.059 7.391,1.059 ZM7.391,9.595 C5.533,9.595 4.065,8.149 4.065,6.396 C4.065,4.633 5.557,3.198 7.391,3.198 C9.225,3.198 10.717,4.633 10.717,6.396 C10.717,8.129 9.272,9.595 7.391,9.595 ZM7.391,4.257 C6.169,4.257 5.166,5.221 5.166,6.396 C5.166,7.575 6.162,8.536 7.391,8.536 C8.640,8.536 9.612,7.558 9.612,6.396 C9.612,5.221 8.614,4.257 7.391,4.257 Z"/>
</svg>